<svg xmlns="http://www.w3.org/2000/svg" viewBox="0 0 512 512">
  <defs>
    <linearGradient id="grad" x1="0%" y1="0%" x2="100%" y2="100%">
      <stop offset="0%" style="stop-color:#667eea;stop-opacity:1" />
      <stop offset="100%" style="stop-color:#764ba2;stop-opacity:1" />
    </linearGradient>
  </defs>
  <!-- 背景圆角矩形 -->
  <rect width="512" height="512" rx="100" fill="url(#grad)"/>
  <!-- 钱袋主体 -->
  <path d="M256 120 C180 120 120 180 120 256 C120 332 180 400 256 400 C332 400 392 332 392 256 C392 180 332 120 256 120Z" fill="white" opacity="0.95"/>
  <!-- 钱袋开口 -->
  <path d="M200 200 L312 200 C320 200 328 208 328 216 L328 240 C328 248 320 256 312 256 L200 256 C192 256 184 248 184 240 L184 216 C184 208 192 200 200 200Z" fill="url(#grad)"/>
  <!-- 钱袋装饰线 -->
  <path d="M256 260 L256 340" stroke="url(#grad)" stroke-width="20" stroke-linecap="round"/>
  <path d="M220 300 L292 300" stroke="url(#grad)" stroke-width="20" stroke-linecap="round"/>
  <!-- ¥ 符号 -->
  <text x="256" y="290" font-family="Arial, sans-serif" font-size="80" font-weight="bold" fill="white" text-anchor="middle" dominant-baseline="middle">¥</text>
</svg>